<?xml version="1.0" encoding="utf-8"?>
<!-- Generator: Adobe Illustrator 16.0.0, SVG Export Plug-In . SVG Version: 6.00 Build 0)  -->
<!DOCTYPE svg PUBLIC "-//W3C//DTD SVG 1.1//EN" "http://www.w3.org/Graphics/SVG/1.1/DTD/svg11.dtd">
<svg version="1.1" id="Layer_1" xmlns="http://www.w3.org/2000/svg" xmlns:xlink="http://www.w3.org/1999/xlink" x="0px" y="0px"
	 width="150px" height="15.9px" viewBox="0 0 150 15.9" style="enable-background:new 0 0 150 15.9;" xml:space="preserve">
<style type="text/css">
<![CDATA[
	.st0{fill:#E29A7A;}
]]>
</style>
<g>
	<g>
		<path class="st0" d="M147.1,12.9c0.4,0,0.8,0.2,1.1,0.5v-0.1c-0.1-0.2-0.2-0.4-0.2-0.6c-0.1-0.2-0.2-0.5-0.2-0.7
			c-0.1-0.2-0.2-0.5-0.2-0.8c-0.1-0.2-0.1-0.5-0.1-0.7c-0.1-0.5-0.1-0.8-0.2-0.8V9.7c0-0.2,0.1-0.3,0.2-0.3s0.2,0.1,0.2,0.2v0.1
			c0,0.1,0.1,0.4,0.1,0.8c0,0.2,0.1,0.5,0.1,0.7s0.1,0.5,0.2,0.8c0.1,0.2,0.1,0.5,0.2,0.8c0.1,0.2,0.2,0.5,0.2,0.6
			c0.1,0.2,0.1,0.4,0.1,0.5c0.3,0.5,0.2,1.3-0.2,1.7c-0.4,0.5-1.1,0.5-1.4,0c-0.2-0.2-0.2-0.5-0.2-0.7c0-0.3,0.1-0.5,0.2-0.7
			c0.3-0.3,0.8-0.3,1.1,0c0.1,0.1,0.1,0.2,0,0.4c-0.1,0.1-0.2,0.1-0.3,0c-0.2-0.2-0.3-0.2-0.5,0c-0.1,0.1-0.2,0.2-0.2,0.4
			c0,0.2,0.1,0.2,0.2,0.4c0.2,0.3,0.6,0.3,0.8,0c0.3-0.4,0.3-1,0-1.3c-0.2-0.2-0.5-0.4-0.8-0.4l0,0H2.6l0,0c-0.3,0-0.5,0.2-0.8,0.4
			c-0.3,0.4-0.3,1,0,1.3c0.2,0.3,0.6,0.3,0.8,0C2.9,15.1,3,14.9,3,14.8c0-0.2-0.1-0.2-0.2-0.4c-0.2-0.2-0.3-0.2-0.5,0
			c-0.1,0.1-0.2,0.1-0.3,0C2,14.3,2,14.2,2.1,14c0.3-0.3,0.8-0.3,1.1,0c0.2,0.2,0.2,0.5,0.2,0.7c0,0.3-0.1,0.5-0.2,0.7
			c-0.2,0.2-0.5,0.4-0.8,0.4c-0.2,0-0.5-0.2-0.8-0.4c-0.5-0.5-0.5-1.4-0.1-1.9c0-0.1,0.1-0.2,0.1-0.3c0.1-0.2,0.1-0.4,0.2-0.6
			c0.1-0.2,0.1-0.5,0.2-0.8C2,11.6,2,11.3,2.1,11.1c0.1-0.1,0.1-0.3,0.2-0.5c0-0.4,0.1-0.7,0.1-0.8s0-0.1,0-0.1
			c0-0.2,0.2-0.2,0.2-0.2c0.1,0,0.2,0.2,0.2,0.3v0.1c0,0.1-0.1,0.4-0.2,0.8c-0.1,0.2-0.1,0.5-0.2,0.7c-0.1,0.2-0.1,0.5-0.2,0.8
			c-0.1,0.2-0.2,0.5-0.2,0.7C2,13,1.9,13.2,1.8,13.3c0.3-0.2,0.6-0.4,0.9-0.4l0,0H147.1z"/>
		<path class="st0" d="M147.1,2.8L147.1,2.8L147.1,2.8c0.4,0,0.7-0.2,1-0.4c-0.1,0.2-0.1,0.4-0.2,0.6c-0.1,0.2-0.2,0.5-0.2,0.8
			c-0.1,0.2-0.2,0.5-0.2,0.8c-0.1,0.2-0.1,0.5-0.2,0.8c-0.1,0.5-0.1,0.8-0.2,0.8c0,0.1,0,0.1,0,0.2c0,0.2,0.1,0.3,0.2,0.3
			c0.1,0,0.2-0.1,0.2-0.2V6.3c0-0.1,0.1-0.5,0.1-0.8c0-0.2,0.1-0.5,0.1-0.7c0-0.2,0.1-0.5,0.2-0.8c0.1-0.2,0.1-0.5,0.2-0.8
			c0.1-0.2,0.1-0.5,0.1-0.7c0-0.2,0.1-0.2,0.1-0.4c0.3-0.5,0.3-1.3-0.2-1.8c-0.4-0.5-1.1-0.5-1.4,0c0,0.1-0.1,0.3-0.1,0.6
			s0.1,0.5,0.2,0.7c0.3,0.3,0.8,0.3,1.1,0c0.1-0.1,0.1-0.2,0-0.4c-0.1-0.1-0.2-0.1-0.3,0c-0.1,0.2-0.3,0.2-0.5,0
			c-0.1-0.1-0.2-0.2-0.2-0.4s0.1-0.2,0.2-0.4c0.2-0.3,0.6-0.3,0.8,0c0.3,0.4,0.3,1,0,1.3c-0.2,0.2-0.5,0.4-0.8,0.4l0,0L2.8,2.3l0,0
			l0,0C2.5,2.3,2.3,2.2,2,1.9c-0.3-0.4-0.3-1,0-1.3c0.2-0.3,0.6-0.3,0.8,0C2.9,0.7,3,0.9,3,1c0,0.2-0.1,0.2-0.2,0.4
			c-0.2,0.1-0.3,0.1-0.5,0c-0.1-0.1-0.2-0.1-0.3,0C2,1.5,2,1.6,2.1,1.7C2.4,2,2.9,2,3.2,1.7C3.3,1.5,3.4,1.2,3.4,1
			c0-0.3-0.1-0.5-0.2-0.7c-0.4-0.5-1.1-0.5-1.4,0C1.3,0.9,1.2,1.7,1.7,2.2c0,0.1,0,0.2,0.1,0.2c0.1,0.2,0.1,0.4,0.2,0.7
			C2,3.4,2,3.7,2,3.9c0.1,0.2,0.1,0.5,0.2,0.8c0,0.2,0.1,0.5,0.1,0.7c0.1,0.5,0.1,0.8,0.1,0.8s0,0.1,0,0.1c0,0.2,0.2,0.2,0.2,0.2
			c0.1,0,0.2-0.2,0.2-0.3c0,0,0-0.1,0-0.2c0.1,0,0-0.3-0.1-0.8C2.6,5,2.6,4.8,2.5,4.5c0-0.2-0.1-0.5-0.2-0.8C2.3,3.5,2.2,3.2,2.1,3
			C2,2.8,2,2.7,1.9,2.5c0.2,0.2,0.5,0.3,0.8,0.3l0,0H147.1z"/>
		<path class="st0" d="M147.4,7c0-0.1,0-0.2,0-0.2c0,0.5-0.5,1.2-0.8,1.2c0.4,0,0.8,0.7,0.8,1.2c0.1-0.5,0.3-1.1,0.8-1.2
			C147.7,7.8,147.4,7.4,147.4,7z"/>
		<path class="st0" d="M2.6,9.1c0-0.5,0.5-1.2,0.8-1.2c-0.4,0-0.8-0.7-0.8-1.2c0,0.1,0,0.2-0.1,0.2c-0.1,0.5-0.3,0.9-0.7,1
			C2.3,8,2.6,8.6,2.6,9.1z"/>
		<path class="st0" d="M0.6,9.7c0.2,0,0.3-0.2,0.3-0.4c0-0.1,0-0.2-0.1-0.2l0.8-0.9C1.5,8.3,1,8.8,0.8,9C0.7,9,0.7,8.9,0.6,8.9
			c-0.2,0-0.3,0.2-0.3,0.4C0.2,9.5,0.4,9.7,0.6,9.7z M0.6,9.1c0.1,0,0.2,0.1,0.2,0.2c0,0.1-0.1,0.2-0.2,0.2c-0.1,0-0.2-0.1-0.2-0.2
			C0.5,9.2,0.5,9.1,0.6,9.1z"/>
		<path class="st0" d="M0.6,6.2c-0.2,0-0.3,0.2-0.3,0.4S0.5,7,0.6,7c0.1,0,0.2,0,0.2-0.1C1,7.1,1.5,7.6,1.6,7.6L0.8,6.8
			c0-0.1,0.1-0.1,0.1-0.2C0.9,6.4,0.8,6.2,0.6,6.2z M0.6,6.8c-0.1,0-0.2-0.1-0.2-0.2s0.1-0.2,0.2-0.2c0.1-0.1,0.2,0,0.2,0.2
			C0.8,6.7,0.7,6.8,0.6,6.8z"/>
		<path class="st0" d="M1.5,5.1c0-0.2-0.2-0.4-0.4-0.3C1.1,4.8,1,4.9,1,4.9C0.9,4.9,0.8,5.1,0.9,5.2c0,0.1,0.1,0.2,0.2,0.2
			c0.1,0,0.1,0.1,0.2,0.1l0,0c0,0.1,0,0.2,0,0.4c0,0.1,0.1,0.2,0.1,0.3s0,0.1,0.1,0.2c0,0.1,0.1,0.1,0.1,0.2c0,0.2,0.1,0.3,0.1,0.4
			C1.6,6.9,1.6,7,1.7,7.1c0.1,0.2,0.2,0.2,0.2,0.2s0-0.1-0.1-0.2c0-0.1-0.1-0.2-0.2-0.2c0-0.2-0.1-0.2-0.1-0.4L1.4,6.3
			c0-0.1,0-0.1,0-0.2S1.4,5.9,1.4,5.9c0-0.2,0-0.3,0-0.4l0,0c0.1,0,0.1-0.1,0.2-0.1C1.5,5.3,1.6,5.2,1.5,5.1z"/>
		<path class="st0" d="M1.2,10c0-0.1,0.1-0.2,0.1-0.3c0-0.1,0-0.1,0-0.2l0.1-0.2c0.1-0.1,0.2-0.2,0.2-0.2C1.6,9.1,1.6,9,1.7,8.9
			c0.1-0.2,0.2-0.2,0.1-0.2c0,0-0.1,0.1-0.2,0.2c0,0-0.1,0.1-0.2,0.2C1.4,9.2,1.4,9.3,1.3,9.4c0,0.1-0.1,0.1-0.1,0.2s0,0.1-0.1,0.2
			c0,0.1-0.1,0.2-0.1,0.3c0,0.2,0,0.3,0,0.4l0,0c-0.1,0-0.2,0.1-0.2,0.1c0,0.1,0,0.2-0.1,0.2c0,0.2,0.1,0.4,0.3,0.5
			c0.1,0,0.2,0,0.3-0.1c0.1-0.1,0.1-0.2,0.1-0.2c0-0.2-0.1-0.4-0.2-0.5l0,0C1.2,10.4,1.2,10.2,1.2,10z"/>
		<path class="st0" d="M0.2,8.2c0.1,0.1,0.2,0.1,0.2,0.1s0.2-0.1,0.2-0.1C0.6,8.1,0.6,8,0.6,8l0.7-0.1L0.6,7.8
			c0-0.2-0.2-0.3-0.3-0.3c-0.1,0-0.2,0.1-0.2,0.1C0,7.7,0,7.8,0,8C0,8,0.1,8.1,0.2,8.2z"/>
		<path class="st0" d="M149.7,9.3c0-0.2-0.2-0.4-0.3-0.4c-0.1,0-0.2,0-0.2,0.1c-0.2-0.2-0.8-0.7-0.8-0.7l0.7,0.8
			c0,0.1-0.1,0.1-0.1,0.2c0,0.2,0.2,0.4,0.3,0.4C149.5,9.7,149.7,9.5,149.7,9.3z M149.2,9.3c0-0.1,0.1-0.2,0.2-0.2
			c0.1,0,0.1,0.1,0.1,0.2c0,0.1-0.1,0.2-0.1,0.2C149.3,9.5,149.2,9.4,149.2,9.3z"/>
		<path class="st0" d="M149.2,6.9c0.1,0,0.1,0.1,0.2,0.1c0.1,0,0.3-0.2,0.3-0.4s-0.2-0.4-0.3-0.4c-0.2,0-0.3,0.2-0.3,0.4
			c0,0.1,0,0.2,0.1,0.2l-0.7,0.8C148.5,7.5,149,7.1,149.2,6.9z M149.4,6.4c0.1,0,0.1,0.1,0.1,0.2c0,0.1-0.1,0.2-0.1,0.2
			c-0.1,0-0.2-0.1-0.2-0.2C149.2,6.5,149.3,6.4,149.4,6.4z"/>
		<path class="st0" d="M148.9,4.8c-0.2,0-0.4,0.1-0.4,0.3c0,0.2,0,0.2,0.1,0.3c0,0.1,0.1,0.1,0.2,0.1l0,0c0,0,0,0.2,0,0.4
			c0,0.1-0.1,0.2-0.1,0.3c0,0.1,0,0.1,0,0.2l-0.1,0.2c-0.1,0.1-0.1,0.2-0.2,0.3s-0.1,0.2-0.2,0.2c-0.1,0.2-0.2,0.2-0.1,0.2
			c0,0,0.1-0.1,0.2-0.2c0.1-0.1,0.1-0.2,0.2-0.2s0.1-0.2,0.2-0.3c0-0.1,0.1-0.1,0.1-0.2s0-0.1,0.1-0.2c0-0.1,0.1-0.2,0.1-0.3
			c0-0.2,0-0.3,0-0.4l0,0c0.1,0,0.1,0,0.2-0.1c0.1-0.1,0.2-0.2,0.2-0.2c0-0.2,0-0.2-0.1-0.3C148.9,4.8,148.9,4.8,148.9,4.8z"/>
		<path class="st0" d="M149.2,10.7c0-0.1-0.1-0.2-0.1-0.2c-0.1-0.1-0.2-0.1-0.2-0.1l0,0c0-0.1,0-0.2,0-0.4c0-0.1-0.1-0.2-0.1-0.3
			c0-0.1,0-0.1-0.1-0.2c0-0.1-0.1-0.1-0.1-0.2c-0.1-0.1-0.1-0.2-0.2-0.3c-0.1-0.1-0.1-0.2-0.2-0.2c-0.1-0.2-0.2-0.2-0.2-0.2
			s0,0.1,0.1,0.2c0,0.1,0.1,0.2,0.2,0.2c0,0.1,0.1,0.2,0.2,0.3l0.1,0.2c0,0.1,0,0.1,0,0.2c0,0.1,0.1,0.2,0.1,0.3c0,0.2,0,0.3,0,0.4
			l0,0c-0.2,0.1-0.2,0.2-0.2,0.5c0,0.1,0.1,0.2,0.1,0.2c0.1,0.1,0.2,0.2,0.3,0.1C149.1,11.1,149.2,10.9,149.2,10.7z"/>
		<path class="st0" d="M150,8c0-0.2,0-0.2-0.1-0.3c-0.1-0.1-0.1-0.1-0.2-0.1c-0.2,0-0.3,0.1-0.4,0.2l-0.7,0.1l0.7,0.1
			c0,0.1,0.1,0.2,0.1,0.2c0.1,0.1,0.1,0.1,0.1,0.1c0.1,0,0.2,0,0.2-0.1C149.9,8.1,150,8,150,8z"/>
	</g>
</g>
</svg>
