<?xml version="1.0" encoding="utf-8"?>
<!-- Generator: Adobe Illustrator 16.0.0, SVG Export Plug-In . SVG Version: 6.00 Build 0)  -->
<!DOCTYPE svg PUBLIC "-//W3C//DTD SVG 1.1//EN" "http://www.w3.org/Graphics/SVG/1.1/DTD/svg11.dtd">
<svg version="1.1" id="Layer_1" xmlns="http://www.w3.org/2000/svg" xmlns:xlink="http://www.w3.org/1999/xlink" x="0px" y="0px"
	 width="265.6px" height="3.7px" viewBox="0 0 265.6 3.7" style="enable-background:new 0 0 265.6 3.7;" xml:space="preserve">
<style type="text/css">
<![CDATA[
	.st0{fill:#B58686;}
]]>
</style>
<g>
	<path class="st0" d="M130.9,3.1c0.6,0,1-0.4,1-1.1c0-1-0.8-1.4-1.7-1.4c0,0-118.5,0-120.2,0c-1.7,0-1.8,2-2.7,2
		C7,2.6,6.8,2.4,6.8,2c0-0.5,1-2,3.1-2C11,0,128.7,0,130.2,0c1.5,0,2.4,0.8,2.4,2c0,1.2-0.9,1.7-1.7,1.7c-0.8,0-1.3-0.5-1.3-1
		c0-0.5,0.4-0.8,0.7-0.8c0.3,0,0.5,0.2,0.5,0.4c0,0.2-0.2,0.4-0.5,0.4C130.3,2.9,130.4,3.1,130.9,3.1z M7.5,0.3c0,0.1,0,0.2-0.4,0.3
		C6.6,0.8,6.3,1,6.1,1.5C5.9,2.2,5.4,2.7,5.1,2.7c-0.3,0-0.6-0.2-0.6-0.6c0-0.6,0.7-1.3,1.3-1.6c0.6-0.4,1.1-0.4,1.3-0.4
		C7.3,0.1,7.5,0.2,7.5,0.3z M5.1,0.3c0,0.2-0.2,0.3-0.4,0.5C4.1,1.3,4,2,3.6,2C3.3,2,3.2,1.8,3.2,1.6c0-0.6,1.2-1.4,1.7-1.4
		C5,0.1,5.1,0.2,5.1,0.3z M3.5,0.5c0,0.2-0.2,0.4-0.4,0.4c-0.3,0-0.4-0.2-0.4-0.4C2.6,0.2,2.8,0,3,0C3.2,0,3.5,0.2,3.5,0.5z M2,0.5
		c0,0.2-0.2,0.4-0.4,0.4c-0.2,0-0.4-0.1-0.4-0.4c0-0.2,0.2-0.4,0.4-0.4C1.8,0.1,2,0.3,2,0.5z M0.7,0.5c0,0.1-0.2,0.3-0.3,0.3
		C0.2,0.8,0,0.6,0,0.5c0-0.2,0.2-0.3,0.3-0.3C0.5,0.2,0.7,0.3,0.7,0.5z"/>
	<path class="st0" d="M135.3,2.7c-0.3,0-0.5-0.2-0.5-0.4c0-0.2,0.2-0.4,0.5-0.4c0.3,0,0.7,0.3,0.7,0.8c0,0.5-0.5,1-1.3,1
		c-0.8,0-1.7-0.5-1.7-1.7c0-1.1,0.9-2,2.4-2s119.2,0,120.3,0c2,0,3.1,1.4,3.1,2c0,0.4-0.2,0.6-0.5,0.6c-0.9,0-1-2-2.7-2
		c-1.7,0-120.2,0-120.2,0c-0.9,0-1.7,0.4-1.7,1.4c0,0.7,0.4,1.1,1,1.1C135.2,3.1,135.3,2.9,135.3,2.7z M258.5,0.1
		c0.2,0,0.7,0,1.3,0.4c0.6,0.3,1.3,1,1.3,1.6c0,0.3-0.3,0.6-0.6,0.6c-0.4,0-0.8-0.4-1.1-1.1c-0.2-0.6-0.5-0.8-0.9-0.9
		c-0.3-0.1-0.4-0.2-0.4-0.3C258.1,0.2,258.3,0.1,258.5,0.1z M260.7,0.1c0.5,0,1.7,0.9,1.7,1.4c0,0.3-0.1,0.4-0.4,0.4
		c-0.4,0-0.5-0.7-1-1.2c-0.2-0.2-0.4-0.3-0.4-0.5C260.5,0.2,260.6,0.1,260.7,0.1z M262.6,0c0.3,0,0.4,0.2,0.4,0.5
		c0,0.2-0.2,0.4-0.4,0.4c-0.2,0-0.4-0.2-0.4-0.4C262.1,0.2,262.3,0,262.6,0z M264,0.1c0.2,0,0.4,0.2,0.4,0.4c0,0.2-0.2,0.4-0.4,0.4
		c-0.2,0-0.4-0.1-0.4-0.4C263.6,0.3,263.8,0.1,264,0.1z M265.3,0.2c0.1,0,0.3,0.2,0.3,0.3c0,0.1-0.2,0.3-0.3,0.3
		c-0.2,0-0.3-0.2-0.3-0.3C264.9,0.3,265.1,0.2,265.3,0.2z"/>
</g>
</svg>
