<?xml version="1.0" encoding="utf-8"?>
<!-- Generator: Adobe Illustrator 16.0.0, SVG Export Plug-In . SVG Version: 6.00 Build 0)  -->
<!DOCTYPE svg PUBLIC "-//W3C//DTD SVG 1.1//EN" "http://www.w3.org/Graphics/SVG/1.1/DTD/svg11.dtd">
<svg version="1.1" id="Layer_1" xmlns="http://www.w3.org/2000/svg" xmlns:xlink="http://www.w3.org/1999/xlink" x="0px" y="0px"
	 width="289.1px" height="36.8px" viewBox="0 0 289.1 36.8" style="enable-background:new 0 0 289.1 36.8;" xml:space="preserve">
<style type="text/css">
<![CDATA[
	.st0{fill:#E29A7A;}
	.st1{fill:#B58687;}
	.st2{fill:#FFFFFF;}
	.st3{fill:none;}
]]>
</style>
<g>
	<path class="st3" d="M280.6,14.1c-2.3,0-6.5,0.7-12.5,4.5c6,3.6,10.1,4.5,12.5,4.5c2.5,0,4-0.7,4.7-1.4c0.9-0.7,1.4-1.8,1.4-2.9
		c0-1.1-0.5-2.2-1.4-2.9C284.6,14.8,283.1,14.1,280.6,14.1v-0.4l0,0V14.1z"/>
	<path class="st3" d="M8.1,14.1c-2.5,0-4,0.7-4.7,1.4C2.5,16.3,2,17.3,2,18.4c0,1.1,0.5,2.2,1.4,2.9c0.7,0.7,2.2,1.4,4.7,1.4
		c2.3,0,6.5-0.7,12.5-4.5C14.6,14.8,10.7,14.1,8.1,14.1v-0.2l0,0V14.1z"/>
	<path class="st3" d="M263.6,18.4L263.6,18.4L263.6,18.4c-3.1-2.2-6.1-4.9-9.4-7.8l-0.4-0.4V2H35v8.3l-0.4,0.4
		c-3.2,3.1-6.5,5.6-9.4,7.8l0,0l0,0c3.1,2.2,6.1,4.7,9.4,7.8l0.4,0.4v8.3h218.8v-8.3l0.4-0.4C257.3,23.3,260.5,20.6,263.6,18.4z
		 M253.3,25.3l-0.9,0.7v7.6H36.3V26l-0.7-0.7c-2.3-2.2-4.7-4.3-7-6.1l-0.9-0.7l0.9-0.7c2.3-1.8,4.7-3.8,7-6.1l0.7-0.7V3.4h216.1v7.4
		l0.9,0.7c2.4,2.2,4.7,4.3,7,6.1l0.9,0.7l-0.9,0.7C258,20.9,255.7,23.1,253.3,25.3z"/>
	<path class="st3" d="M258.7,18.4c-2.3-1.8-4.7-4-6.5-5.6l-1.3-1.3V4.9H37.9v6.7l-1.3,1.3c-1.8,1.6-4.2,3.8-6.7,5.6
		c2.2,1.8,4.7,3.8,6.7,5.6l1.3,1.3V32H251v-6.7l1.3-1.3C254,22.4,256.6,20.2,258.7,18.4z"/>
	<path class="st1" d="M8.1,13.7L8.1,13.7L8.1,13.7z"/>
	<path class="st0" d="M286.7,13.9c-1.4-1.3-3.6-2-6-2c-4.2,0-9.2,1.8-14.6,5.4H266h-0.2c-3.1-2.2-6.5-4.9-9.8-7.9l0,0V0H32.9v9.4
		l0,0c-3.4,3.1-6.7,5.8-9.8,7.9h-0.2h-0.2c-5.6-3.6-10.5-5.4-14.6-5.4c-2.5,0-4.5,0.7-6,2C0.7,15.2,0,16.8,0,18.4s0.7,3.2,2.2,4.5
		c1.4,1.3,3.6,2,6.1,2c4.2,0,9-1.8,14.6-5.4h0.2h0.2c3.1,2.2,6.5,4.9,9.8,7.9l0,0v9.4h223v-9.4l0,0c3.4-3.1,6.7-5.8,9.8-7.9h0.2h0.2
		c5.6,3.6,10.5,5.4,14.6,5.4c2.5,0,4.5-0.7,6.1-2c1.4-1.1,2.2-2.7,2.2-4.5C288.7,16.8,288,15.2,286.7,13.9z M21.1,18.6
		c-6.3,4-10.5,4.7-13,4.7c-2.7,0-4.2-0.9-5.1-1.6c-1.1-0.9-1.6-2-1.6-3.2c0-1.3,0.5-2.3,1.6-3.2c0.9-0.7,2.5-1.6,5.1-1.6l0,0
		c2.5,0,6.7,0.9,13,4.7l0.4,0.2L21.1,18.6z M264.3,18.6L264.3,18.6c-3.2,2.3-6.5,4.9-9.8,7.9l-0.2,0.2v8.5H34.5v-8.5l-0.2-0.2
		c-3.2-3.1-6.5-5.8-9.6-7.9l-0.2-0.2l0,0l0,0l0.2-0.2l0.2-0.2c3.1-2.2,6.3-4.9,9.6-7.9l0.2-0.2V1.6h219.7v8.5l0.2,0.2
		c3.2,3.1,6.5,5.8,9.6,7.9L264.3,18.6L264.3,18.6z M285.6,21.7c-0.9,0.7-2.3,1.6-5.1,1.6c-2.5,0-6.9-0.9-13-4.7l-0.4-0.2l0.4-0.2
		c6.3-4,10.5-4.7,13-4.7l0,0c2.7,0,4.2,0.9,5.1,1.6c1.1,0.9,1.6,2,1.6,3.2C287.3,19.7,286.7,20.9,285.6,21.7z"/>
	<path class="st1" d="M280.6,13.7L280.6,13.7L280.6,13.7z"/>
	<path class="st2" d="M8.1,13.5L8.1,13.5c-2.5,0-4.2,0.9-5.1,1.6c-1.1,0.9-1.6,2-1.6,3.2c0,1.3,0.5,2.3,1.6,3.2
		c0.9,0.7,2.3,1.6,5.1,1.6c2.5,0,6.9-0.9,13-4.7l0.4-0.2l-0.4-0.2C15,14.4,10.7,13.5,8.1,13.5z M8.1,13.7v0.2
		c2.3,0,6.5,0.7,12.5,4.5c-6,3.6-10.1,4.5-12.5,4.5c-2.5,0-4-0.7-4.7-1.4C2.5,20.8,2,19.7,2,18.6c0-1.1,0.5-2.2,1.4-2.9
		c0.7-0.7,2.2-1.4,4.7-1.4V13.7L8.1,13.7L8.1,13.7z"/>
	<path class="st2" d="M285.6,15.2c-0.9-0.7-2.3-1.6-5.1-1.6l0,0c-2.5,0-6.9,0.9-13,4.7l-0.4,0.2l0.4,0.2c6.3,4,10.5,4.7,13,4.7
		c2.7,0,4.2-0.9,5.1-1.6c1.1-0.9,1.6-2,1.6-3.2C287.3,17.2,286.7,16.1,285.6,15.2z M280.6,13.7v0.2c2.5,0,4,0.7,4.7,1.4
		c0.9,0.7,1.4,1.8,1.4,2.9c0,1.1-0.5,2.2-1.4,2.9c-0.7,0.7-2.2,1.4-4.7,1.4c-2.3,0-6.5-0.7-12.5-4.5c6-3.6,10.1-4.5,12.5-4.5V13.7
		L280.6,13.7L280.6,13.7z"/>
	<path class="st0" d="M260,18.8l0.5-0.4l-0.5-0.4c-2.3-1.8-4.7-3.8-7-6.1l-0.9-0.9V3.8H36.8V11l-0.9,0.9c-2.3,2.2-4.7,4.3-7.2,6.1
		l-0.4,0.4l0.5,0.4c2.3,1.8,4.7,3.8,7,6.1l0.9,0.9V33h215.2v-7.2l0.9-0.9C255.3,22.8,257.6,20.8,260,18.8z M251.3,25.5v7h-214v-6.9
		l-1.1-1.1c-2-1.8-4.5-4-6.9-5.8l-0.2-0.2l0.2-0.2c2.3-2,4.9-4.2,6.9-5.8l1.1-1.1v-7h214v6.9l1.1,1.1c1.8,1.8,4.3,4,6.7,5.8l0.2,0.2
		l-0.2,0.2c-2.3,1.8-4.9,4-6.7,5.8L251.3,25.5z"/>
</g>
</svg>
