<?xml version="1.0" encoding="utf-8"?>
<!-- Generator: Adobe Illustrator 16.0.0, SVG Export Plug-In . SVG Version: 6.00 Build 0)  -->
<!DOCTYPE svg PUBLIC "-//W3C//DTD SVG 1.1//EN" "http://www.w3.org/Graphics/SVG/1.1/DTD/svg11.dtd">
<svg version="1.1" id="Layer_1" xmlns="http://www.w3.org/2000/svg" xmlns:xlink="http://www.w3.org/1999/xlink" x="0px" y="0px"
	 width="109.5px" height="19.7px" viewBox="0 0 109.5 19.7" style="enable-background:new 0 0 109.5 19.7;" xml:space="preserve">
<style type="text/css">
<![CDATA[
	.st0{fill:#E19A7A;}
]]>
</style>
<path class="st0" d="M0.8,0.5C1.3,0.7,2,0.9,3,1.2s2.2,0.6,3.5,1C7.8,2.5,9.3,2.9,11,3.3c3.3,0.8,7.2,1.6,11.4,2.4L23,5.9
	C23.3,6,23.5,6,23.7,6.1l0.6,0.3c0.2,0,0.4,0.2,0.6,0.3l0.2,0.2C25.2,7,25.3,7,25.4,7.1c0.2,0.1,0.4,0.2,0.5,0.4
	c0.2,0.2,0.4,0.3,0.5,0.5c0.2,0.1,0.3,0.3,0.4,0.5l0.1,0.2h0.3c0.2-0.1,0.3-0.2,0.5-0.3c0.1-0.1,0.3-0.2,0.5-0.3
	C28.3,8,28.5,8,28.7,7.9c0.2-0.1,0.4-0.2,0.6-0.2c0.2-0.1,0.4-0.2,0.6-0.2l0.6-0.1c0.2-0.1,0.4-0.1,0.6-0.1h0.4
	c1.4,0.2,2.9,0.4,4.3,0.6c-0.2,0-0.4,0.1-0.6,0.2c-0.6,0.3-1,0.8-1.1,1.4c-0.2,0.5-0.1,1.2,0.2,1.6c0.3,0.5,0.7,0.7,1.1,0.8
	c0.4,0.1,0.8,0,1.1-0.1c0.2-0.1,0.4-0.3,0.5-0.4c0.1-0.2,0.2-0.4,0.3-0.6c0-0.3-0.1-0.5-0.3-0.5s-0.3,0.2-0.4,0.3
	c0,0.1-0.1,0.2-0.2,0.3c-0.1,0.1-0.4,0.4-0.9,0.3c-0.2-0.1-0.5-0.2-0.7-0.5s-0.3-0.7-0.2-1.1c0.1-0.4,0.4-0.8,0.8-1
	c0.2-0.1,0.5-0.2,0.7-0.2c0.2-0.1,0.5,0,0.8,0c1.1,0.2,2.2,0.8,3.2,1.4c2,1.3,3.9,2.9,5.4,3.4c0.6,0.3,1.1,0.5,1.5,0.6
	c0.3,0.1,0.6,0.2,0.9,0.3c0.1,0,0.3,0.1,0.4,0.1h0.4c0.3,0,0.5,0,0.8,0s0.5,0,0.8,0s0.5-0.1,0.8-0.1c1-0.2,2-0.7,2.9-1.4
	c0.2-0.2,0.4-0.3,0.6-0.5c0.2,0.2,0.5,0.4,0.7,0.6c0.8,0.7,1.9,1.2,2.9,1.4c0.3,0,0.5,0.1,0.8,0.1s0.5,0,0.8,0c0.3,0.1,0.5,0,0.8,0
	s0.6,0,0.8-0.1c0.3-0.1,0.6-0.2,0.9-0.4c0.4-0.1,0.8-0.3,1.2-0.5c1.6-0.8,3.5-2.4,5.5-3.7c1-0.7,2.1-1.2,3.2-1.4c0.3,0,0.6,0,0.8,0
	c0.3,0,0.5,0.1,0.7,0.2c0.4,0.2,0.7,0.6,0.8,1c0.1,0.4,0,0.8-0.2,1.1c-0.2,0.3-0.4,0.5-0.7,0.5c-0.5,0.1-0.8-0.2-0.9-0.3
	c-0.1-0.1-0.2-0.2-0.2-0.3c-0.1-0.2-0.2-0.3-0.4-0.3s-0.4,0.2-0.3,0.5c0,0.2,0.1,0.4,0.3,0.6c0.1,0.1,0.2,0.3,0.5,0.4
	c0.3,0.1,0.7,0.2,1.1,0.1c0.4-0.1,0.8-0.4,1.1-0.8s0.4-1,0.2-1.6c-0.1-0.6-0.5-1.1-1.1-1.4c-0.1,0-0.2-0.1-0.3-0.1
	c1.6-0.2,3.1-0.4,4.7-0.6c0.2,0.1,0.3,0.1,0.5,0.1l0.6,0.1c0.2,0.1,0.4,0.1,0.6,0.2c0.2,0.1,0.4,0.1,0.6,0.2c0.1,0,0.3,0.1,0.5,0.2
	c0.2,0.1,0.3,0.2,0.5,0.3c0.2,0.1,0.4,0.2,0.5,0.3l0.2,0.1l0.1-0.2c0.1-0.1,0.3-0.3,0.4-0.5c0.1-0.2,0.2-0.3,0.4-0.5
	c0.1-0.1,0.3-0.3,0.5-0.4C83.8,7,83.9,7,84,6.9l0.2-0.3c0.2-0.1,0.4-0.2,0.6-0.3l0.4-0.2c4.9-0.8,9.5-1.7,13.3-2.7
	c1.6-0.4,3.2-0.8,4.5-1.2c1.4-0.4,2.5-0.8,3.5-1.1s1.7-0.6,2.2-0.8c0.3-0.1,0.5-0.2,0.6-0.2c0.1-0.1,0.2-0.1,0.2-0.1
	s-0.1,0.1-0.2,0.1c-0.2,0.1-0.3,0.1-0.6,0.2c-0.5,0.1-1.3,0.4-2.2,0.7c-1,0.3-2.2,0.6-3.5,1c-1.4,0.3-2.9,0.7-4.6,1.1
	C95,4,91,4.8,86.6,5.5V5.4l-0.7,0.2c-0.2,0.1-0.5,0.1-0.7,0.2h-0.1c-2.4,0.4-4.9,0.8-7.4,1.1h-0.2l0,0c-1.4,0.2-2.9,0.4-4.4,0.6
	C70.7,7.8,68.4,8,66,8.2c-1.2,0.1-2.3,0.2-3.5,0.2c-0.2,0-0.4,0-0.6,0h-0.1c-0.4-0.1-0.9,0-1.3,0.1c-0.5,0-1,0.1-1.5,0.2
	c-1.2,0.3-2.2,0.9-3.1,1.6c-0.5,0.4-1,0.9-1.5,1.3c-0.5-0.4-0.9-0.8-1.4-1.2c-0.8-0.7-1.9-1.4-3-1.7l-0.4-0.1l-0.4-0.1
	c-0.2,0-0.5-0.1-0.8-0.1c-0.4-0.2-0.9-0.2-1.3-0.1l0,0c-0.1,0-0.3,0-0.4,0c-1.2,0-2.3-0.1-3.5-0.2C42,8,40.9,7.9,39.7,7.8
	c-1.2-0.1-2.3-0.3-3.5-0.4c-9.3-1.1-18.4-2.8-25.1-4.3C9.4,2.7,7.8,2.3,6.5,2C5.1,1.7,4,1.4,3,1.1C2.1,0.8,1.3,0.6,0.8,0.5
	C0.5,0.4,0.3,0.4,0.2,0.4C0.1,0.3,0,0.3,0,0.3s0.1,0.1,0.2,0.1C0.3,0.4,0.5,0.5,0.8,0.5z M79.7,7.1c1.5-0.2,3-0.5,4.4-0.7l-0.2,0.1
	c-0.1,0-0.2,0.1-0.3,0.2c-0.1,0.2-0.3,0.3-0.5,0.5c-0.2,0.1-0.4,0.3-0.5,0.5c-0.1,0.1-0.2,0.3-0.3,0.4C82.2,8,82.1,8,82,7.9
	c-0.2-0.1-0.4-0.2-0.6-0.3c-0.2-0.1-0.4-0.1-0.6-0.2s-0.4-0.2-0.6-0.2C80,7.2,79.8,7.1,79.7,7.1z M63.2,13.3
	c0.2-0.2,0.4-0.4,0.6-0.6c0.1-0.1,0.1-0.2,0.2-0.3v-0.5c0.1-0.2,0.2-0.4,0.2-0.7c0.1-0.2,0-0.5,0-0.7c0-0.3-0.1-0.5-0.2-0.7
	c-0.2-0.4-0.5-0.7-0.8-1c1.1,0,2.1-0.1,3.1-0.2c1.5-0.1,3-0.2,4.5-0.4c-0.7,0.3-1.4,0.7-2,1.1c-2.1,1.4-3.8,3.1-5.4,3.9
	C63.3,13.3,63.3,13.3,63.2,13.3z M55.1,12c0.4-0.4,0.9-0.8,1.4-1.2c0.9-0.7,1.8-1.2,2.9-1.5c0.1-0.1,0.2-0.1,0.3-0.1
	c-0.2,0.2-0.3,0.5-0.4,0.7c-0.2,0.2-0.4,0.4-0.6,0.6c-0.4,0.4-0.8,0.5-0.9,0.5c0,0-0.2,0.1-0.3,0.2c-0.1,0.1-0.2,0.3-0.2,0.4
	c0,0.1,0,0.2,0.2,0.3c0.1,0.1,0.2,0.1,0.3,0.1s0.1,0,0.2,0h0.1c0,0,0.3-0.1,0.5-0.3s0.4-0.4,0.5-0.6c0.1,0.6,0.6,1.1,1,1.3
	c0.5,0.2,1,0.2,1.4,0.1c0.4-0.1,0.6-0.4,0.8-0.6c0.3-0.4,0.4-0.8,0.3-1.3c-0.1-0.4-0.4-0.8-0.8-0.9c-0.3-0.1-0.5,0-0.5,0.2
	c0.1,0.2,0.2,0.3,0.3,0.4c0.2,0.1,0.3,0.3,0.4,0.5c0.1,0.2,0,0.5,0,0.9c-0.1,0.1-0.3,0.2-0.5,0.3c-0.3,0.1-0.6,0.1-0.9-0.1
	c-0.3-0.1-0.6-0.5-0.7-0.9c-0.1-0.5,0-1,0.4-1.4c0.4-0.4,1-0.6,1.6-0.5c0.7,0.1,1.3,0.6,1.6,1.2c0.1,0.1,0.1,0.3,0.2,0.5
	c0,0.1,0,0.3,0,0.5c0,0.1,0,0.3-0.1,0.5l-0.1,0.3c-0.1,0-0.1,0.1-0.2,0.2c-0.5,0.6-1.2,1.2-2.1,1.4c-0.3,0-0.5,0.1-0.7,0.1
	s-0.5,0-0.7,0s-0.5,0-0.7,0s-0.5-0.1-0.7-0.1c-0.9-0.2-1.9-0.6-2.7-1.2C55.5,12.4,55.3,12.2,55.1,12z M48.4,13.9
	c-0.1,0-0.2-0.1-0.3-0.1c-0.9-0.2-1.6-0.7-2.1-1.4s-0.6-1.5-0.1-2c0.3-0.6,0.9-1.1,1.5-1.2C48,9,48.6,9.2,49,9.6
	c0.4,0.4,0.6,1,0.5,1.4c-0.1,0.4-0.4,0.7-0.7,0.9s-0.7,0.2-0.9,0.1c-0.3,0-0.4-0.2-0.5-0.3c-0.2-0.2-0.3-0.5-0.2-0.7
	c0-0.2,0.2-0.4,0.4-0.5c0.2-0.1,0.3-0.2,0.3-0.4c0-0.1-0.2-0.3-0.5-0.2c-0.3,0.1-0.7,0.4-0.8,0.9c-0.1,0.5,0,0.9,0.3,1.3
	c0.1,0.2,0.4,0.5,0.8,0.6c0.4,0.1,0.9,0.1,1.4-0.2c0.4-0.3,0.7-0.7,0.9-1.2c0.1,0.1,0.3,0.3,0.4,0.4c0.2,0.2,0.4,0.3,0.5,0.3
	c0,0,0,0,0.1,0c0.1,0,0.1,0,0.2,0c0.1,0,0.2-0.1,0.3-0.1c0.1,0,0.2-0.2,0.2-0.3c0-0.2-0.1-0.3-0.2-0.4c-0.1-0.1-0.3-0.2-0.3-0.2
	c-0.1,0-0.5-0.1-0.9-0.5c-0.1-0.1-0.3-0.3-0.4-0.4c0-0.3-0.2-0.5-0.4-0.8h0.1L50,9.4c1,0.3,2,0.9,2.8,1.6c0.4,0.3,0.9,0.7,1.3,1.1
	c-0.2,0.1-0.3,0.3-0.5,0.4c-0.8,0.6-1.7,1.1-2.7,1.3c-0.2,0-0.5,0.1-0.7,0.1c-0.2,0-0.5,0-0.7,0s-0.5,0-0.7,0H48.4z M38,8.4
	c0.5,0.1,1.1,0.1,1.6,0.2c1.1,0.1,2.3,0.2,3.5,0.3C44.1,9,45,9.1,46,9.1c-0.4,0.3-0.7,0.6-0.9,1.1c-0.2,0.4-0.3,0.9-0.2,1.4L45,12
	c0,0.1,0.1,0.2,0.1,0.3c0.1,0.2,0.3,0.4,0.4,0.6c0.2,0.2,0.4,0.5,0.7,0.7c-0.2-0.1-0.3-0.2-0.5-0.3c-1.6-0.9-3.3-2.5-5.4-3.9
	C39.6,8.9,38.9,8.4,38,8.4z M24.8,6.3c1.7,0.3,3.4,0.5,5.1,0.8h-0.2c-0.2,0.1-0.4,0.1-0.6,0.2c-0.2,0.1-0.4,0.1-0.6,0.2
	c-0.2,0-0.4,0.1-0.6,0.2c-0.2,0.1-0.4,0.2-0.6,0.3c-0.1,0-0.2,0.1-0.3,0.2c-0.1-0.1-0.2-0.3-0.3-0.4c-0.2-0.2-0.3-0.3-0.5-0.5
	c-0.1-0.2-0.3-0.3-0.5-0.5c-0.1-0.1-0.2-0.1-0.3-0.2l-0.3-0.2C25,6.3,24.9,6.2,24.8,6.3z"/>
<path class="st0" d="M52.7,14.7c0.1,0,0.3,0.1,0.4,0.1c0.7,0.1,1.4,0.5,1.6,1.3c0.2-0.9,1.2-1.3,2-1.4c-0.8,0-1.5-0.6-2-1.2
	C54.3,14.1,53.6,14.7,52.7,14.7z"/>
<path class="st0" d="M52.5,18.3c0-0.1,0-0.3-0.1-0.4c0.5-0.5,1.4-1.9,1.5-2l-1.8,1.7c-0.1-0.1-0.3-0.1-0.4-0.1
	c-0.4,0-0.8,0.4-0.8,0.8c0,0.4,0.4,0.8,0.8,0.8C52.1,19.1,52.5,18.7,52.5,18.3z M52.1,18.3c0,0.2-0.2,0.4-0.4,0.4
	c-0.2,0-0.4-0.2-0.4-0.4c0-0.2,0.2-0.4,0.4-0.4C51.9,17.9,52.1,18.1,52.1,18.3z"/>
<path class="st0" d="M55.4,15.9c0.1,0.2,1,1.5,1.5,2c-0.1,0.1-0.1,0.2-0.1,0.4c0,0.4,0.4,0.8,0.8,0.8c0.4,0,0.8-0.4,0.8-0.8
	c0-0.4-0.4-0.8-0.8-0.8c-0.2,0-0.3,0-0.4,0.1L55.4,15.9z M57.1,18.3c0-0.2,0.2-0.4,0.4-0.4s0.4,0.2,0.4,0.4c0,0.2-0.2,0.4-0.4,0.4
	S57.1,18.5,57.1,18.3z"/>
<path class="st0" d="M57.3,15.7c-0.2-0.1-0.3-0.2-0.5-0.3c-0.3-0.2-0.5-0.3-0.5-0.3c-0.1,0,0.1,0.2,0.4,0.4c0.2,0.1,0.3,0.3,0.5,0.4
	c0.2,0.2,0.4,0.3,0.6,0.4c0.1,0.1,0.2,0.1,0.3,0.2c0.1,0,0.2,0.1,0.3,0.1c0.2,0.1,0.4,0.2,0.6,0.2c0.4,0.1,0.7,0.1,0.8,0.1l0,0
	c0,0.2,0,0.3,0.1,0.4c0.1,0.1,0.3,0.3,0.5,0.3h0.1c0.4,0,0.7-0.3,0.8-0.7c0-0.4-0.3-0.8-0.7-0.9h-0.1c-0.4,0-0.7,0.2-0.8,0.5l0,0
	c-0.1-0.1-0.4-0.1-0.8-0.1c-0.2-0.1-0.4-0.1-0.6-0.2c-0.1,0-0.2-0.1-0.3-0.1L57.7,16C57.5,15.9,57.3,15.8,57.3,15.7z"/>
<path class="st0" d="M50.9,16.8c0.1,0,0.2-0.1,0.3-0.1c0.1-0.1,0.2-0.1,0.3-0.2c0.2-0.1,0.4-0.2,0.6-0.3c0.2-0.2,0.4-0.3,0.5-0.4
	c0.2-0.2,0.4-0.4,0.4-0.4s-0.2,0.1-0.5,0.3c-0.1,0.1-0.3,0.2-0.5,0.3c-0.2,0.1-0.4,0.2-0.6,0.3l-0.3,0.1c-0.1,0-0.2,0.1-0.3,0.1
	c-0.2,0.1-0.4,0.2-0.6,0.2c-0.4,0.1-0.7,0.1-0.8,0.1l0,0c-0.2-0.4-0.4-0.6-0.8-0.6h-0.1c-0.2,0-0.4,0.1-0.5,0.3
	c-0.1,0.2-0.1,0.4-0.1,0.6c0.1,0.4,0.4,0.7,0.8,0.7h0.1c0.2,0,0.4-0.1,0.5-0.3c0-0.1,0.1-0.3,0.1-0.4l0,0c0.1,0,0.4-0.1,0.8-0.1
	C50.4,16.9,50.6,16.9,50.9,16.8z"/>
<path class="st0" d="M55.5,19c0.1-0.4-0.1-0.8-0.5-0.9l-0.2-1.5l-0.2,1.6c-0.3,0-0.5,0.3-0.6,0.6c-0.1,0.2,0,0.4,0.1,0.6
	c0.1,0.1,0.3,0.3,0.5,0.3h0.1C55.1,19.7,55.4,19.4,55.5,19z"/>
<path class="st0" d="M33,3.5c-1-0.1-1.9-0.2-2.6-0.3C29,3.1,28.2,3,28.2,3s0.8,0.1,2.2,0.3C31.2,3.4,32,3.6,33,3.7
	C34,3.8,35.1,4,36.2,4c1.2,0.1,2.5,0.3,3.9,0.4c1.4,0.1,2.9,0.2,4.4,0.3c1.5,0.2,3.1,0.2,4.7,0.2c1.1,0,2.3,0,3.4,0
	c0.9,0.5,1.8,1.3,1.8,2c0-0.7,1-1.6,2-2c0.9-0.1,1.8-0.1,2.6-0.1c1.6-0.1,3.2-0.2,4.7-0.3c0.8-0.1,1.6-0.2,2.3-0.2
	c0.8,0,1.5-0.1,2.2-0.2c1.4-0.2,2.7-0.4,3.9-0.5c1.2-0.1,2.3-0.3,3.3-0.5c0.9-0.1,1.8-0.3,2.5-0.4c1.4-0.3,2.2-0.4,2.2-0.4
	s-0.8,0.1-2.2,0.3c-0.7,0.1-1.6,0.2-2.6,0.3S73.2,3.2,72,3.3c-1.2,0.2-2.5,0.3-3.9,0.4c-0.7,0.1-1.4,0.2-2.1,0.2S64.6,4,63.8,4
	c-1.5,0.1-3.1,0.2-4.7,0.3c-1.1,0-2.2,0-3.3,0c-0.6-0.3-1-0.8-1.2-1.5c-0.2,0.7-0.7,1.2-1.3,1.5c-1.3,0-2.6,0-3.9,0
	c-1.6,0-3.2,0-4.7-0.1c-1.5-0.1-3-0.1-4.4-0.2c-1.4-0.1-2.7-0.2-3.9-0.3C35.2,3.6,34,3.5,33,3.5z"/>
</svg>
