<?xml version="1.0" encoding="utf-8"?>
<!-- Generator: Adobe Illustrator 16.0.0, SVG Export Plug-In . SVG Version: 6.00 Build 0)  -->
<!DOCTYPE svg PUBLIC "-//W3C//DTD SVG 1.1//EN" "http://www.w3.org/Graphics/SVG/1.1/DTD/svg11.dtd">
<svg version="1.1" id="Layer_1" xmlns="http://www.w3.org/2000/svg" xmlns:xlink="http://www.w3.org/1999/xlink" x="0px" y="0px"
	 width="10.9px" height="17.1px" viewBox="169.7 47.6 10.9 17.1" style="enable-background:new 169.7 47.6 10.9 17.1;"
	 xml:space="preserve">
<style type="text/css">
<![CDATA[
	.st0{fill:#B48686;}
]]>
</style>
<g>
	<g>
		<path class="st0" d="M172.4,53.5c-0.1-0.2-0.1-0.4-0.1-0.6c-0.1,1.3-1.5,3.2-2.6,3.2c1.1,0,2.5,1.9,2.6,3.2
			c0.2-1.3,0.9-2.8,2.3-3.2C173.4,55.7,172.7,54.6,172.4,53.5z"/>
		<path class="st0" d="M179.8,59.7c0-0.5-0.4-1-1-1c-0.2,0-0.4,0.1-0.5,0.2c-0.6-0.6-2.3-1.7-2.5-1.9l2.1,2.2
			c-0.1,0.1-0.1,0.3-0.1,0.5c0,0.5,0.4,1,1,1S179.8,60.3,179.8,59.7z M178.3,59.7c0-0.3,0.2-0.5,0.5-0.5s0.5,0.2,0.5,0.5
			s-0.2,0.5-0.5,0.5S178.3,60,178.3,59.7z"/>
		<path class="st0" d="M178.3,53.3c0.2,0.1,0.3,0.2,0.5,0.2c0.5,0,1-0.4,1-1c0-0.5-0.4-1-1-1c-0.5,0-1,0.4-1,1c0,0.2,0,0.3,0.1,0.5
			l-2.1,2.2C176,55,177.7,53.8,178.3,53.3z M178.8,51.9c0.3,0,0.5,0.2,0.5,0.5s-0.2,0.5-0.5,0.5s-0.5-0.2-0.5-0.5
			C178.3,52.2,178.5,51.9,178.8,51.9z"/>
		<path class="st0" d="M177.1,47.6c-0.6-0.1-1.1,0.3-1.2,0.8c-0.1,0.3,0,0.7,0.3,0.9c0.1,0.1,0.2,0.2,0.4,0.2c0,0,0,0,0,0.1
			c0,0.1,0,0.5-0.1,0.9c0,0.2-0.1,0.5-0.2,0.8c0,0.1-0.1,0.3-0.1,0.4l-0.2,0.4c-0.1,0.3-0.2,0.5-0.4,0.8c-0.1,0.2-0.3,0.5-0.4,0.6
			c-0.2,0.4-0.4,0.6-0.3,0.7c0,0,0.2-0.2,0.5-0.6c0.1-0.2,0.3-0.4,0.5-0.6c0.1-0.2,0.3-0.5,0.4-0.8c0.1-0.1,0.2-0.3,0.2-0.4
			c0-0.1,0.1-0.3,0.1-0.4c0.1-0.3,0.2-0.6,0.2-0.8c0.1-0.5,0.1-0.9,0.1-1l0,0c0.2,0,0.3-0.1,0.5-0.2c0.2-0.2,0.4-0.4,0.4-0.7
			c0.1-0.3,0-0.7-0.3-0.9C177.5,47.7,177.3,47.6,177.1,47.6z"/>
		<path class="st0" d="M178.2,63.5c0-0.2-0.1-0.4-0.3-0.5c-0.2-0.2-0.4-0.3-0.6-0.3l0,0c0-0.1-0.1-0.5-0.1-1
			c-0.1-0.2-0.2-0.5-0.2-0.8c0-0.1-0.1-0.3-0.1-0.4c-0.1-0.1-0.1-0.3-0.2-0.4c-0.1-0.3-0.3-0.5-0.4-0.8c-0.2-0.2-0.3-0.4-0.5-0.6
			c-0.3-0.4-0.5-0.6-0.5-0.6s0.1,0.3,0.3,0.7c0.1,0.2,0.2,0.4,0.4,0.6c0.1,0.2,0.2,0.5,0.4,0.8l0.2,0.4c0,0.1,0.1,0.3,0.1,0.4
			c0.1,0.3,0.1,0.5,0.2,0.8c0,0.5,0.1,0.8,0.1,0.9c0,0,0,0,0,0.1c-0.5,0.2-0.8,0.6-0.7,1.1c0,0.2,0.1,0.4,0.3,0.5
			c0.2,0.2,0.6,0.3,0.9,0.3C177.9,64.6,178.3,64,178.2,63.5z"/>
		<path class="st0" d="M180.6,56.2c0.1-0.3,0-0.7-0.3-0.9c-0.1-0.1-0.3-0.2-0.5-0.3c-0.5-0.1-1,0.2-1.1,0.7l-2,0.3l2,0.3
			c0,0.2,0.1,0.4,0.3,0.5c0.1,0.1,0.3,0.2,0.5,0.3c0.3,0,0.5,0,0.8-0.2C180.4,56.7,180.5,56.4,180.6,56.2z"/>
	</g>
</g>
</svg>
