<?xml version="1.0" encoding="utf-8"?>
<!-- Generator: Adobe Illustrator 16.0.0, SVG Export Plug-In . SVG Version: 6.00 Build 0)  -->
<!DOCTYPE svg PUBLIC "-//W3C//DTD SVG 1.1//EN" "http://www.w3.org/Graphics/SVG/1.1/DTD/svg11.dtd">
<svg version="1.1" id="Layer_1" xmlns="http://www.w3.org/2000/svg" xmlns:xlink="http://www.w3.org/1999/xlink" x="0px" y="0px"
	 width="109.6px" height="19.6px" viewBox="0 0 109.6 19.6" style="enable-background:new 0 0 109.6 19.6;" xml:space="preserve">
<style type="text/css">
<![CDATA[
	.st0{fill:#E19A7A;}
]]>
</style>
<g>
	<path class="st0" d="M0.2,19.3c-0.1,0-0.2,0.1-0.2,0.1S0.1,19.4,0.2,19.3c0.1,0,0.3,0,0.6-0.1c0.5-0.1,1.3-0.3,2.2-0.6
		c1-0.3,2.1-0.6,3.5-0.9c1.3-0.3,2.9-0.7,4.6-1.1c6.7-1.5,15.8-3.2,25.1-4.3c1.2-0.1,2.3-0.3,3.5-0.4c1.2-0.1,2.3-0.2,3.5-0.3
		c1.2-0.1,2.3-0.2,3.5-0.2c0.1,0,0.3,0,0.4,0l0,0c0.4,0.1,0.9,0.1,1.3-0.1c0.3,0,0.6-0.1,0.8-0.1l0.4-0.1L50,11c1.1-0.3,2.2-1,3-1.7
		c0.5-0.4,0.9-0.8,1.4-1.2c0.5,0.4,1,0.9,1.5,1.3c0.9,0.7,1.9,1.3,3.1,1.6c0.5,0.1,1,0.2,1.5,0.2c0.4,0.1,0.9,0.2,1.3,0.1h0.1
		c0.2,0,0.4,0,0.6,0c1.2,0,2.3,0.1,3.5,0.2c2.4,0.2,4.7,0.4,7.1,0.7c1.5,0.2,3,0.4,4.4,0.6l0,0h0.2c2.5,0.3,5,0.7,7.4,1.1h0.1
		c0.2,0.1,0.5,0.1,0.7,0.2l0.7,0.2v-0.1c4.4,0.7,8.4,1.5,11.8,2.4c1.7,0.4,3.2,0.8,4.6,1.1c1.3,0.4,2.5,0.7,3.5,1
		c0.9,0.3,1.7,0.6,2.2,0.7c0.3,0.1,0.4,0.1,0.6,0.2c0.1,0,0.2,0.1,0.2,0.1s-0.1,0-0.2-0.1c-0.1,0-0.3-0.1-0.6-0.2
		c-0.5-0.2-1.2-0.5-2.2-0.8s-2.1-0.7-3.5-1.1c-1.3-0.4-2.9-0.8-4.5-1.2c-3.8-1-8.4-1.9-13.3-2.7l-0.4-0.2c-0.2-0.1-0.4-0.2-0.6-0.3
		L84,12.8c-0.1-0.1-0.2-0.1-0.3-0.2c-0.2-0.1-0.4-0.3-0.5-0.4c-0.2-0.2-0.3-0.3-0.4-0.5c-0.1-0.2-0.3-0.4-0.4-0.5L82.3,11l-0.2,0.1
		c-0.1,0.1-0.3,0.2-0.5,0.3c-0.2,0.1-0.3,0.2-0.5,0.3c-0.2,0.1-0.4,0.2-0.5,0.2C80.4,12,80.2,12,80,12.1c-0.2,0.1-0.4,0.1-0.6,0.2
		l-0.6,0.1c-0.2,0-0.3,0-0.5,0.1c-1.6-0.2-3.1-0.4-4.7-0.6c0.1,0,0.2-0.1,0.3-0.1c0.6-0.3,1-0.8,1.1-1.4c0.2-0.6,0.1-1.2-0.2-1.6
		S74.1,8.1,73.7,8c-0.4-0.1-0.8,0-1.1,0.1c-0.3,0.1-0.4,0.3-0.5,0.4c-0.2,0.2-0.3,0.4-0.3,0.6c-0.1,0.3,0.1,0.5,0.3,0.5
		s0.3-0.1,0.4-0.3c0-0.1,0.1-0.2,0.2-0.3c0.1-0.1,0.4-0.4,0.9-0.3c0.3,0,0.5,0.2,0.7,0.5c0.2,0.3,0.3,0.7,0.2,1.1
		c-0.1,0.4-0.4,0.8-0.8,1c-0.2,0.1-0.4,0.2-0.7,0.2c-0.2,0-0.5,0-0.8,0c-1.1-0.2-2.2-0.7-3.2-1.4c-2-1.3-3.9-2.9-5.5-3.7
		c-0.4-0.2-0.8-0.4-1.2-0.5c-0.3-0.2-0.6-0.3-0.9-0.4c-0.2-0.1-0.5-0.1-0.8-0.1s-0.5-0.1-0.8,0c-0.3,0-0.5,0-0.8,0s-0.5,0.1-0.8,0.1
		c-1,0.2-2.1,0.7-2.9,1.4c-0.2,0.2-0.5,0.4-0.7,0.6C54.4,7.3,54.2,7.2,54,7c-0.9-0.7-1.9-1.2-2.9-1.4c-0.3,0-0.5-0.1-0.8-0.1
		s-0.5,0-0.8,0s-0.5,0-0.8,0h-0.4c-0.1,0-0.3,0.1-0.4,0.1c-0.3,0.1-0.6,0.2-0.9,0.3c-0.4,0.1-0.9,0.3-1.5,0.6
		C44,7,42.1,8.6,40.1,9.9c-1,0.6-2.1,1.2-3.2,1.4c-0.3,0-0.6,0.1-0.8,0c-0.2,0-0.5-0.1-0.7-0.2c-0.4-0.2-0.7-0.6-0.8-1
		c-0.1-0.4,0-0.8,0.2-1.1s0.5-0.4,0.7-0.5c0.5-0.1,0.8,0.2,0.9,0.3c0.1,0.1,0.2,0.2,0.2,0.3c0.1,0.1,0.2,0.3,0.4,0.3
		s0.3-0.2,0.3-0.5c-0.1-0.2-0.2-0.4-0.3-0.6c-0.1-0.1-0.3-0.3-0.5-0.4c-0.3-0.1-0.7-0.2-1.1-0.1c-0.4,0.1-0.8,0.3-1.1,0.8
		C34,9,33.9,9.7,34.1,10.2c0.1,0.6,0.5,1.1,1.1,1.4c0.2,0.1,0.4,0.2,0.6,0.2c-1.4,0.2-2.9,0.4-4.3,0.6h-0.4c-0.2,0-0.4,0-0.6-0.1
		l-0.6-0.1c-0.2,0-0.4-0.1-0.6-0.2c-0.2,0-0.4-0.1-0.6-0.2c-0.2-0.1-0.4-0.1-0.5-0.2c-0.2-0.1-0.4-0.2-0.5-0.3
		c-0.2-0.1-0.3-0.2-0.5-0.3h-0.3l-0.1,0.2c-0.1,0.2-0.2,0.4-0.4,0.5c-0.1,0.2-0.3,0.3-0.5,0.5c-0.1,0.2-0.3,0.3-0.5,0.4
		c-0.1,0.1-0.2,0.1-0.3,0.2L24.9,13c-0.2,0.1-0.4,0.3-0.6,0.3l-0.6,0.3c-0.2,0.1-0.4,0.1-0.7,0.2L22.4,14c-4.2,0.8-8.1,1.6-11.4,2.4
		c-1.7,0.4-3.2,0.8-4.5,1.1c-1.3,0.4-2.5,0.7-3.5,1S1.3,19,0.8,19.2C0.5,19.2,0.3,19.3,0.2,19.3z M80.2,12.5c0.2,0,0.4-0.1,0.6-0.2
		s0.4-0.1,0.6-0.2c0.2-0.1,0.4-0.2,0.6-0.3c0.1-0.1,0.2-0.1,0.3-0.2c0.1,0.1,0.2,0.3,0.3,0.4c0.1,0.2,0.3,0.4,0.5,0.5
		c0.2,0.2,0.4,0.3,0.5,0.5c0.1,0.1,0.2,0.2,0.3,0.2l0.2,0.1c-1.4-0.2-2.9-0.5-4.4-0.7C79.8,12.6,80,12.5,80.2,12.5z M63.4,6.5
		c1.6,0.8,3.3,2.5,5.4,3.9c0.6,0.4,1.3,0.8,2,1.1c-1.5-0.2-3-0.3-4.5-0.4c-1-0.1-2-0.2-3.1-0.2c0.3-0.3,0.6-0.6,0.8-1
		c0.1-0.2,0.2-0.4,0.2-0.7c0-0.2,0.1-0.5,0-0.7c0-0.3-0.1-0.5-0.2-0.7V7.3c-0.1-0.1-0.1-0.2-0.2-0.3c-0.2-0.2-0.4-0.4-0.6-0.6
		C63.3,6.4,63.3,6.4,63.4,6.5z M55.7,7.2c0.8-0.6,1.8-1,2.7-1.2c0.2,0,0.5-0.1,0.7-0.1s0.5,0,0.7,0s0.5,0,0.7,0S60.9,6,61.2,6
		c0.9,0.2,1.6,0.8,2.1,1.4c0.1,0.1,0.1,0.2,0.2,0.2l0.1,0.3c0.1,0.2,0.1,0.4,0.1,0.5c0,0.2,0,0.4,0,0.5c-0.1,0.2-0.1,0.4-0.2,0.5
		c-0.3,0.6-0.9,1.1-1.6,1.2c-0.6,0.1-1.2-0.1-1.6-0.5c-0.4-0.4-0.5-0.9-0.4-1.4c0.1-0.4,0.4-0.8,0.7-0.9c0.3-0.2,0.6-0.2,0.9-0.1
		C61.7,7.8,61.9,7.9,62,8c0,0.4,0.1,0.7,0,0.9c-0.1,0.2-0.2,0.4-0.4,0.5c-0.1,0.1-0.2,0.2-0.3,0.4c0,0.2,0.2,0.3,0.5,0.2
		c0.4-0.1,0.7-0.5,0.8-0.9c0.1-0.5,0-0.9-0.3-1.3c-0.2-0.2-0.4-0.5-0.8-0.6c-0.4-0.1-0.9-0.1-1.4,0.1c-0.4,0.2-0.9,0.7-1,1.3
		C59,8.4,58.8,8.2,58.6,8s-0.5-0.3-0.5-0.3H58c-0.1,0-0.1,0-0.2,0s-0.2,0-0.3,0.1c-0.2,0.1-0.2,0.2-0.2,0.3c0,0.1,0.1,0.3,0.2,0.4
		c0.1,0.1,0.3,0.2,0.3,0.2c0.1,0,0.5,0.1,0.9,0.5c0.2,0.2,0.4,0.4,0.6,0.6c0.1,0.2,0.2,0.5,0.4,0.7c-0.1,0-0.2,0-0.3-0.1
		c-1.1-0.3-2-0.8-2.9-1.5c-0.5-0.4-1-0.8-1.4-1.2C55.3,7.5,55.5,7.3,55.7,7.2z M48.8,5.8c0.2,0,0.5,0,0.7,0s0.5,0,0.7,0
		c0.2,0,0.5,0.1,0.7,0.1c1,0.2,1.9,0.7,2.7,1.3c0.2,0.1,0.3,0.3,0.5,0.4c-0.4,0.4-0.9,0.8-1.3,1.1C52,9.4,51,10,50,10.3l-0.4,0.1
		h-0.1c0.2-0.3,0.4-0.5,0.4-0.8c0.1-0.1,0.3-0.3,0.4-0.4c0.4-0.4,0.8-0.5,0.9-0.5c0,0,0.2-0.1,0.3-0.2c0.1-0.1,0.2-0.2,0.2-0.4
		c0-0.1-0.1-0.3-0.2-0.3c-0.1,0-0.2-0.1-0.3-0.1c-0.1,0-0.1,0-0.2,0c-0.1,0-0.1,0-0.1,0c-0.1,0-0.3,0.1-0.5,0.3
		c-0.1,0.1-0.3,0.3-0.4,0.4c-0.2-0.5-0.5-0.9-0.9-1.2c-0.5-0.3-1-0.3-1.4-0.2c-0.4,0.1-0.7,0.4-0.8,0.6c-0.3,0.4-0.4,0.8-0.3,1.3
		c0.1,0.5,0.5,0.8,0.8,0.9c0.3,0.1,0.5-0.1,0.5-0.2c0-0.2-0.1-0.3-0.3-0.4c-0.2-0.1-0.4-0.3-0.4-0.5c-0.1-0.2,0-0.5,0.2-0.7
		c0.1-0.1,0.2-0.3,0.5-0.3c0.2-0.1,0.6-0.1,0.9,0.1s0.6,0.5,0.7,0.9c0.1,0.4-0.1,1-0.5,1.4c-0.4,0.4-1,0.6-1.6,0.4
		c-0.6-0.1-1.2-0.6-1.5-1.2c-0.5-0.5-0.4-1.3,0.1-2s1.2-1.2,2.1-1.4c0.1,0,0.2-0.1,0.3-0.1H48.8z M40.3,10.3c2.1-1.4,3.8-3,5.4-3.9
		c0.2-0.1,0.3-0.2,0.5-0.3c-0.3,0.2-0.5,0.5-0.7,0.7c-0.1,0.2-0.3,0.4-0.4,0.6c0,0.1-0.1,0.2-0.1,0.3l-0.1,0.4c-0.1,0.5,0,1,0.2,1.4
		c0.2,0.5,0.5,0.8,0.9,1.1c-1,0-1.9,0.1-2.9,0.2c-1.2,0.1-2.4,0.2-3.5,0.3c-0.5,0.1-1.1,0.1-1.6,0.2C38.9,11.3,39.6,10.8,40.3,10.3z
		 M25.1,13.3l0.3-0.2c0.1-0.1,0.2-0.1,0.3-0.2c0.2-0.2,0.4-0.3,0.5-0.5c0.2-0.2,0.3-0.3,0.5-0.5c0.1-0.1,0.2-0.3,0.3-0.4
		c0.1,0.1,0.2,0.2,0.3,0.2c0.2,0.1,0.4,0.2,0.6,0.3c0.2,0.1,0.4,0.2,0.6,0.2c0.2,0.1,0.4,0.1,0.6,0.2c0.2,0.1,0.4,0.1,0.6,0.2h0.2
		c-1.7,0.3-3.4,0.5-5.1,0.8C24.9,13.5,25,13.4,25.1,13.3z"/>
	<path class="st0" d="M54.7,6.2c0.5-0.6,1.2-1.2,2-1.2c-0.8-0.1-1.8-0.5-2-1.4c-0.2,0.8-0.9,1.2-1.6,1.3C53,4.9,52.8,5,52.7,5
		C53.6,5,54.3,5.6,54.7,6.2z"/>
	<path class="st0" d="M51.7,0.6c-0.4,0-0.8,0.4-0.8,0.8c0,0.4,0.4,0.8,0.8,0.8c0.1,0,0.3,0,0.4-0.1l1.8,1.7c-0.1-0.1-1-1.5-1.5-2
		c0.1-0.1,0.1-0.3,0.1-0.4C52.5,1,52.1,0.6,51.7,0.6z M51.7,1.8c-0.2,0-0.4-0.2-0.4-0.4c0-0.2,0.2-0.4,0.4-0.4
		c0.2,0,0.4,0.2,0.4,0.4C52.1,1.6,51.9,1.8,51.7,1.8z"/>
	<path class="st0" d="M57.2,2.1c0.1,0.1,0.2,0.1,0.4,0.1c0.4,0,0.8-0.4,0.8-0.8c0-0.4-0.4-0.8-0.8-0.8c-0.4,0-0.8,0.4-0.8,0.8
		c0,0.2,0,0.3,0.1,0.4c-0.5,0.5-1.4,1.8-1.5,2L57.2,2.1z M57.5,1c0.2,0,0.4,0.2,0.4,0.4c0,0.2-0.2,0.4-0.4,0.4s-0.4-0.2-0.4-0.4
		C57.1,1.2,57.3,1,57.5,1z"/>
	<path class="st0" d="M57.7,3.7L58,3.6c0.1,0,0.2-0.1,0.3-0.1c0.2-0.1,0.4-0.1,0.6-0.2c0.4,0,0.7,0,0.8-0.1l0,0
		c0.1,0.3,0.4,0.5,0.8,0.5h0.1c0.4-0.1,0.7-0.5,0.7-0.9c-0.1-0.4-0.4-0.7-0.8-0.7h-0.1c-0.2,0-0.4,0.2-0.5,0.3
		c-0.1,0.1-0.1,0.2-0.1,0.4l0,0c-0.1,0-0.4,0-0.8,0.1c-0.2,0-0.4,0.1-0.6,0.2c-0.1,0-0.2,0.1-0.3,0.1c-0.1,0.1-0.2,0.1-0.3,0.2
		c-0.2,0.1-0.4,0.2-0.6,0.4c-0.2,0.1-0.3,0.3-0.5,0.4c-0.3,0.2-0.5,0.4-0.4,0.4c0,0,0.2-0.1,0.5-0.3C57,4.2,57.1,4.1,57.3,4
		C57.3,3.9,57.5,3.8,57.7,3.7z"/>
	<path class="st0" d="M50.2,2.7c-0.4,0-0.7-0.1-0.8-0.1l0,0c0-0.1-0.1-0.3-0.1-0.4C49.2,2,49,1.9,48.8,1.9h-0.1
		c-0.4,0-0.7,0.3-0.8,0.7c0,0.2,0,0.4,0.1,0.6c0.1,0.2,0.3,0.3,0.5,0.3h0.1c0.4,0,0.6-0.2,0.8-0.6l0,0c0.1,0,0.4,0,0.8,0.1
		c0.2,0,0.4,0.1,0.6,0.2c0.1,0,0.2,0.1,0.3,0.1l0.3,0.1c0.2,0.1,0.4,0.2,0.6,0.3c0.2,0.1,0.4,0.2,0.5,0.3C52.8,4.2,53,4.3,53,4.3
		s-0.2-0.2-0.4-0.4c-0.1-0.1-0.3-0.2-0.5-0.4c-0.2-0.1-0.4-0.2-0.6-0.3c-0.1-0.1-0.2-0.1-0.3-0.2c-0.1,0-0.2-0.1-0.3-0.1
		C50.6,2.8,50.4,2.8,50.2,2.7z"/>
	<path class="st0" d="M54.7,0h-0.1c-0.2,0-0.4,0.2-0.5,0.3C54,0.5,53.9,0.7,54,0.9c0.1,0.3,0.3,0.6,0.6,0.6l0.2,1.6L55,1.6
		c0.4-0.1,0.6-0.5,0.5-0.9C55.4,0.3,55.1,0,54.7,0z"/>
	<path class="st0" d="M36.4,16c1.2-0.1,2.5-0.2,3.9-0.3c1.4-0.1,2.9-0.1,4.4-0.2c1.5-0.1,3.1-0.1,4.7-0.1c1.3,0,2.6,0,3.9,0
		c0.6,0.3,1.1,0.8,1.3,1.5c0.2-0.7,0.6-1.2,1.2-1.5c1.1,0,2.2,0,3.3,0c1.6,0.1,3.2,0.2,4.7,0.3c0.8,0,1.5,0.1,2.2,0.1
		s1.4,0.1,2.1,0.2c1.4,0.1,2.7,0.2,3.9,0.4c1.2,0.1,2.3,0.3,3.3,0.4s1.9,0.2,2.6,0.3c1.4,0.2,2.2,0.3,2.2,0.3s-0.8-0.1-2.2-0.4
		c-0.7-0.1-1.6-0.3-2.5-0.4c-1-0.2-2.1-0.4-3.3-0.5c-1.2-0.1-2.5-0.3-3.9-0.5c-0.7-0.1-1.4-0.2-2.2-0.2c-0.7,0-1.5-0.1-2.3-0.2
		c-1.5-0.1-3.1-0.2-4.7-0.3c-0.8,0-1.7,0-2.6-0.1c-1-0.4-2-1.3-2-2c0,0.7-0.9,1.5-1.8,2c-1.1,0-2.3,0-3.4,0c-1.6,0-3.2,0-4.7,0.2
		c-1.5,0.1-3,0.2-4.4,0.3c-1.4,0.1-2.7,0.3-3.9,0.4c-1.1,0-2.2,0.2-3.2,0.3c-1,0.1-1.8,0.3-2.6,0.4c-1.4,0.2-2.2,0.3-2.2,0.3
		s0.8-0.1,2.2-0.2c0.7-0.1,1.6-0.2,2.6-0.3C34,16.2,35.2,16.1,36.4,16z"/>
</g>
</svg>
