<?xml version="1.0" encoding="utf-8"?>
<!-- Generator: Adobe Illustrator 16.0.0, SVG Export Plug-In . SVG Version: 6.00 Build 0)  -->
<!DOCTYPE svg PUBLIC "-//W3C//DTD SVG 1.1//EN" "http://www.w3.org/Graphics/SVG/1.1/DTD/svg11.dtd">
<svg version="1.1" id="Layer_1" xmlns="http://www.w3.org/2000/svg" xmlns:xlink="http://www.w3.org/1999/xlink" x="0px" y="0px"
	 width="10.6px" height="17.1px" viewBox="0 47.6 10.6 17.1" style="enable-background:new 0 47.6 10.6 17.1;" xml:space="preserve"
	>
<style type="text/css">
<![CDATA[
	.st0{fill:#E19A7A;}
]]>
</style>
<g>
	<g>
		<path class="st0" d="M8,59.2c0.1-1.3,1.5-3.2,2.6-3.2c-1.1,0-2.5-1.9-2.6-3.2c0,0.2-0.1,0.4-0.1,0.6C7.6,54.6,7,55.7,5.8,56
			C7.2,56.4,7.9,57.9,8,59.2z"/>
		<path class="st0" d="M1.8,60.7c0.5,0,1-0.4,1-1c0-0.2,0-0.3-0.1-0.5L4.8,57c-0.2,0.1-1.9,1.3-2.5,1.9c-0.2-0.1-0.3-0.2-0.5-0.2
			c-0.5,0-1,0.4-1,1S1.2,60.7,1.8,60.7z M1.8,59.2c0.3,0,0.5,0.2,0.5,0.5s-0.2,0.5-0.5,0.5S1.3,60,1.3,59.7
			C1.3,59.5,1.5,59.2,1.8,59.2z"/>
		<path class="st0" d="M1.8,51.4c-0.5,0-1,0.4-1,1c0,0.5,0.4,1,1,1c0.2,0,0.4-0.1,0.5-0.2c0.6,0.6,2.3,1.7,2.5,1.9l-2.1-2.2
			c0.1-0.1,0.1-0.3,0.1-0.5C2.8,51.9,2.3,51.4,1.8,51.4z M1.8,52.9c-0.3,0-0.5-0.2-0.5-0.5s0.2-0.5,0.5-0.5s0.5,0.2,0.5,0.5
			S2.1,52.9,1.8,52.9z"/>
		<path class="st0" d="M4.7,48.4c-0.1-0.6-0.6-0.9-1.2-0.8c-0.2,0-0.4,0.1-0.5,0.3c-0.2,0.2-0.3,0.6-0.3,0.9c0,0.3,0.2,0.5,0.4,0.7
			c0.1,0.1,0.3,0.1,0.5,0.2l0,0c0,0.1,0.1,0.5,0.1,1c0.1,0.2,0.2,0.5,0.2,0.8c0,0.1,0.1,0.3,0.1,0.4c0.1,0.1,0.1,0.3,0.2,0.4
			c0.2,0.3,0.3,0.5,0.4,0.8c0.2,0.2,0.3,0.4,0.5,0.6c0.3,0.4,0.5,0.6,0.5,0.6S5.5,54,5.3,53.6c-0.1-0.2-0.2-0.4-0.4-0.6
			c-0.1-0.2-0.2-0.5-0.4-0.8l-0.2-0.4c0-0.1-0.1-0.3-0.1-0.4c-0.1-0.3-0.1-0.5-0.2-0.8c0-0.5-0.1-0.8-0.1-0.9c0,0,0,0,0-0.1
			c0.1,0,0.3-0.1,0.4-0.2C4.7,49.1,4.8,48.8,4.7,48.4z"/>
		<path class="st0" d="M3.8,61.7c0-0.2,0.1-0.5,0.2-0.8c0-0.1,0.1-0.3,0.1-0.4l0.2-0.4c0.1-0.3,0.2-0.5,0.4-0.8
			c0.1-0.2,0.3-0.5,0.4-0.6C5.3,58.3,5.4,58,5.4,58s-0.2,0.2-0.5,0.6c-0.1,0.2-0.3,0.4-0.5,0.6C4.3,59.4,4.1,59.7,4,60
			c-0.1,0.1-0.2,0.3-0.2,0.4c0,0.1-0.1,0.3-0.1,0.4c-0.1,0.3-0.2,0.6-0.2,0.8c-0.1,0.5-0.1,0.9-0.1,1l0,0c-0.2,0-0.4,0.1-0.6,0.3
			c-0.1,0.1-0.2,0.3-0.3,0.5c-0.1,0.6,0.3,1.1,0.8,1.2c0.3,0.1,0.7,0,0.9-0.3c0.1-0.1,0.2-0.3,0.3-0.5c0.1-0.5-0.2-1-0.7-1.1
			c0,0,0,0,0-0.1C3.8,62.5,3.8,62.2,3.8,61.7z"/>
		<path class="st0" d="M0.4,56.8C0.7,57,0.9,57,1.2,57c0.2,0,0.4-0.1,0.5-0.3C1.9,56.6,2,56.4,2,56.2l2-0.3l-2-0.3
			c-0.2-0.5-0.6-0.8-1.1-0.7c-0.2,0-0.4,0.1-0.5,0.3c-0.3,0.3-0.4,0.6-0.4,1C0.1,56.4,0.2,56.7,0.4,56.8z"/>
	</g>
</g>
</svg>
