<?xml version="1.0" encoding="utf-8"?>
<!-- Generator: Adobe Illustrator 16.0.0, SVG Export Plug-In . SVG Version: 6.00 Build 0)  -->
<!DOCTYPE svg PUBLIC "-//W3C//DTD SVG 1.1//EN" "http://www.w3.org/Graphics/SVG/1.1/DTD/svg11.dtd">
<svg version="1.1" id="Layer_1" xmlns="http://www.w3.org/2000/svg" xmlns:xlink="http://www.w3.org/1999/xlink" x="0px" y="0px"
	 width="265.6px" height="3.7px" viewBox="0 0 265.6 3.7" style="enable-background:new 0 0 265.6 3.7;" xml:space="preserve">
<style type="text/css">
<![CDATA[
	.st0{fill:#B58686;}
]]>
</style>
<g>
	<path class="st0" d="M130.3,1c0.3,0,0.5,0.2,0.5,0.4c0,0.2-0.2,0.4-0.5,0.4c-0.3,0-0.7-0.3-0.7-0.8c0-0.5,0.5-1,1.3-1
		c0.8,0,1.7,0.5,1.7,1.7c0,1.1-0.9,2-2.4,2c-1.5,0-119.2,0-120.3,0c-2,0-3.1-1.4-3.1-2c0-0.4,0.2-0.6,0.5-0.6c0.9,0,1,2,2.7,2
		c1.7,0,120.2,0,120.2,0c0.9,0,1.7-0.4,1.7-1.4c0-0.7-0.4-1.1-1-1.1C130.4,0.5,130.3,0.8,130.3,1z M7.1,3.6c-0.2,0-0.7,0-1.3-0.4
		c-0.6-0.3-1.3-1-1.3-1.6C4.5,1.3,4.8,1,5.1,1c0.4,0,0.8,0.4,1.1,1.1c0.2,0.6,0.5,0.8,0.9,0.9c0.3,0.1,0.4,0.2,0.4,0.3
		C7.5,3.5,7.3,3.6,7.1,3.6z M4.9,3.6c-0.5,0-1.7-0.9-1.7-1.4c0-0.3,0.1-0.4,0.4-0.4c0.4,0,0.5,0.7,1,1.2c0.2,0.2,0.4,0.3,0.4,0.5
		C5.1,3.5,5,3.6,4.9,3.6z M3,3.7c-0.3,0-0.4-0.2-0.4-0.5C2.6,3,2.8,2.8,3,2.8c0.2,0,0.4,0.2,0.4,0.4C3.5,3.5,3.2,3.7,3,3.7z
		 M1.6,3.6c-0.2,0-0.4-0.2-0.4-0.4c0-0.2,0.2-0.4,0.4-0.4C1.8,2.8,2,3,2,3.2C2,3.4,1.8,3.6,1.6,3.6z M0.3,3.5C0.2,3.5,0,3.4,0,3.2
		c0-0.1,0.2-0.3,0.3-0.3c0.2,0,0.3,0.2,0.3,0.3C0.7,3.4,0.5,3.5,0.3,3.5z"/>
	<path class="st0" d="M134.7,0.5c-0.6,0-1,0.4-1,1.1c0,1,0.8,1.4,1.7,1.4c0,0,118.5,0,120.2,0c1.7,0,1.8-2,2.7-2
		c0.3,0,0.5,0.1,0.5,0.6c0,0.5-1,2-3.1,2c-1.2,0-118.8,0-120.3,0s-2.4-0.8-2.4-2c0-1.2,0.9-1.7,1.7-1.7c0.8,0,1.3,0.5,1.3,1
		c0,0.5-0.4,0.8-0.7,0.8c-0.3,0-0.5-0.2-0.5-0.4c0-0.2,0.2-0.4,0.5-0.4C135.3,0.8,135.2,0.5,134.7,0.5z M258.1,3.4
		c0-0.1,0-0.2,0.4-0.3c0.4-0.2,0.8-0.3,0.9-0.9c0.3-0.7,0.7-1.1,1.1-1.1c0.3,0,0.6,0.2,0.6,0.6c0,0.6-0.7,1.3-1.3,1.6
		c-0.6,0.4-1.1,0.4-1.3,0.4C258.3,3.6,258.1,3.5,258.1,3.4z M260.5,3.4c0-0.2,0.2-0.3,0.4-0.5c0.5-0.5,0.6-1.2,1-1.2
		c0.4,0,0.4,0.2,0.4,0.4c0,0.6-1.2,1.4-1.7,1.4C260.6,3.6,260.5,3.5,260.5,3.4z M262.1,3.2c0-0.2,0.2-0.4,0.4-0.4
		c0.3,0,0.4,0.2,0.4,0.4c0,0.3-0.2,0.5-0.4,0.5C262.3,3.7,262.1,3.5,262.1,3.2z M263.6,3.2c0-0.2,0.2-0.4,0.4-0.4
		c0.2,0,0.4,0.1,0.4,0.4c0,0.2-0.2,0.4-0.4,0.4C263.8,3.6,263.6,3.4,263.6,3.2z M264.9,3.2c0-0.1,0.2-0.3,0.3-0.3
		c0.1,0,0.3,0.2,0.3,0.3c0,0.2-0.2,0.3-0.3,0.3C265.1,3.5,264.9,3.4,264.9,3.2z"/>
</g>
</svg>
